<?xml version="1.0" encoding="utf-8"?>
<!-- Generator: Adobe Illustrator 16.0.0, SVG Export Plug-In . SVG Version: 6.00 Build 0)  -->
<!DOCTYPE svg PUBLIC "-//W3C//DTD SVG 1.1//EN" "http://www.w3.org/Graphics/SVG/1.1/DTD/svg11.dtd">
<svg version="1.1" id="Layer_1" xmlns="http://www.w3.org/2000/svg" xmlns:xlink="http://www.w3.org/1999/xlink" x="0px" y="0px"
	 width="125.5px" height="161.5px" viewBox="42.25 67.75 125.5 161.5" enable-background="new 42.25 67.75 125.5 161.5"
	 xml:space="preserve">
<rect x="42.5" y="68" fill="#FFFFFF" stroke="#000000" stroke-width="0.5" stroke-miterlimit="10" width="125" height="161"/>
<path fill="#43515F" d="M61.6,113.528l-8.378,16.725c-0.747,1.496,0.049,3.286,1.644,3.741l32.194,9.192
	c1.155,0.325,2.392-0.164,3.01-1.189l14.935-24.727L64.3,112.081C63.178,111.952,62.105,112.521,61.6,113.528z M156.785,130.252
	l-8.378-16.725c-0.505-1.007-1.595-1.594-2.717-1.447l-40.687,5.189l14.918,24.743c0.618,1.026,1.854,1.513,3.01,1.188l32.195-9.191
	C156.736,133.539,157.518,131.749,156.785,130.252z M122.2,148.504c-2.751,0-5.336-1.464-6.735-3.807l-10.461-17.343L94.56,144.698
	c-1.416,2.359-4.002,3.823-6.752,3.823c-0.731,0-1.462-0.097-2.163-0.31l-22.287-6.376v28.957c0,2.392,1.627,4.474,3.937,5.043
	l35.172,8.803c1.66,0.405,3.399,0.405,5.043,0l35.204-8.803c2.311-0.586,3.938-2.668,3.938-5.043v-28.957l-22.288,6.359
	C123.663,148.407,122.932,148.504,122.2,148.504z"/>
</svg>
