<?xml version="1.0" encoding="utf-8"?>
<!-- Generator: Adobe Illustrator 16.0.0, SVG Export Plug-In . SVG Version: 6.00 Build 0)  -->
<!DOCTYPE svg PUBLIC "-//W3C//DTD SVG 1.1//EN" "http://www.w3.org/Graphics/SVG/1.1/DTD/svg11.dtd">
<svg version="1.1" id="Layer_1" xmlns="http://www.w3.org/2000/svg" xmlns:xlink="http://www.w3.org/1999/xlink" x="0px" y="0px"
	 width="125.5px" height="161.5px" viewBox="42.25 67.75 125.5 161.5" enable-background="new 42.25 67.75 125.5 161.5"
	 xml:space="preserve">
<rect x="42.5" y="68" fill="#FFFFFF" stroke="#000000" stroke-width="0.5" stroke-miterlimit="10" width="125" height="161"/>
<path fill="#43515F" d="M85.312,111.586v14.766c0,2.446-1.983,4.43-4.43,4.43H62.18c-2.446,0-4.43-1.983-4.43-4.43v-14.766
	c0-2.446,1.983-4.43,4.43-4.43h18.703C83.329,107.156,85.312,109.14,85.312,111.586z M118.781,155.883v-14.766
	c0-2.446-1.983-4.43-4.43-4.43H95.648c-2.446,0-4.43,1.983-4.43,4.43v14.766c0,2.446,1.983,4.43,4.43,4.43h18.703
	C116.798,160.312,118.781,158.329,118.781,155.883z M124.688,111.586v14.766c0,2.446,1.983,4.43,4.43,4.43h18.703
	c2.446,0,4.43-1.983,4.43-4.43v-14.766c0-2.446-1.983-4.43-4.43-4.43h-18.703C126.671,107.156,124.688,109.14,124.688,111.586z
	 M118.781,126.352v-14.766c0-2.446-1.983-4.43-4.43-4.43H95.648c-2.446,0-4.43,1.983-4.43,4.43v14.766c0,2.446,1.983,4.43,4.43,4.43
	h18.703C116.798,130.781,118.781,128.798,118.781,126.352z M80.883,136.688H62.18c-2.446,0-4.43,1.983-4.43,4.43v14.766
	c0,2.446,1.983,4.43,4.43,4.43h18.703c2.446,0,4.43-1.983,4.43-4.43v-14.766C85.312,138.671,83.329,136.688,80.883,136.688z
	 M57.75,170.648v14.766c0,2.446,1.983,4.43,4.43,4.43h18.703c2.446,0,4.43-1.983,4.43-4.43v-14.766c0-2.446-1.983-4.43-4.43-4.43
	H62.18C59.733,166.219,57.75,168.202,57.75,170.648z M129.117,160.312h18.703c2.446,0,4.43-1.983,4.43-4.43v-14.766
	c0-2.446-1.983-4.43-4.43-4.43h-18.703c-2.446,0-4.43,1.983-4.43,4.43v14.766C124.688,158.329,126.671,160.312,129.117,160.312z
	 M129.117,189.844h18.703c2.446,0,4.43-1.983,4.43-4.43v-14.766c0-2.446-1.983-4.43-4.43-4.43h-18.703
	c-2.446,0-4.43,1.983-4.43,4.43v14.766C124.688,187.86,126.671,189.844,129.117,189.844z M91.219,170.648v14.766
	c0,2.446,1.983,4.43,4.43,4.43h18.703c2.446,0,4.43-1.983,4.43-4.43v-14.766c0-2.446-1.983-4.43-4.43-4.43H95.648
	C93.202,166.219,91.219,168.202,91.219,170.648z"/>
</svg>
